<svg id="eZ1Ijn7NfsA1" xmlns="http://www.w3.org/2000/svg" xmlns:xlink="http://www.w3.org/1999/xlink" viewBox="0 0 300 300" shape-rendering="geometricPrecision" text-rendering="geometricPrecision"><path d="M153.9055,201.82618l44.20393-38.68072-38.68072,44.20393l58.6083,3.9055-58.60829,3.9055l38.68072,44.20393-44.20392-38.68072-3.9055,58.6083-3.9055-58.60829-44.20392,38.68072l38.68072-44.20392-58.6083-3.9055l58.6083-3.9055-38.68072-44.20392l44.20393,38.68072l3.9055-58.60829l3.90547,58.60826ZM150,43.397L294.6383,293.91789h-289.2766L150,43.397Zm-5.51029,97.97361c-2.91017.22904-6.69707-7.05926-6.69707-7.05926s-1.34934,8.1018-4.18786,8.78327-7.71893-5.9247-7.71893-5.9247-.06533,8.21314-2.76229,9.33026-8.55072-4.64425-8.55072-4.64425s1.22029,8.12224-1.26871,9.6475-9.17197-3.24945-9.17197-3.24945s2.47587,7.83135.25611,9.7272-9.56737-1.77463-9.56737-1.77463s3.67048,7.34762,1.77463,9.56737-9.7272-.25611-9.7272-.25611s4.77471,6.68297,3.24945,9.17197-9.6475,1.26871-9.6475,1.26871s5.76137,5.85376,4.64425,8.55072-9.33026,2.76229-9.33026,2.76229s6.60617,4.88041,5.9247,7.71893-8.78327,4.18786-8.78327,4.18786s7.2883,3.7869,7.05926,6.69707-8.02,5.5103-8.02,5.5103s7.79097,2.60013,8.02,5.5103-7.05926,6.69707-7.05926,6.69707s8.1018,1.34934,8.78327,4.18786-5.9247,7.71893-5.9247,7.71893s8.21314.06533,9.33026,2.76229-4.64425,8.55072-4.64425,8.55072s8.12224-1.22029,9.6475,1.26871-3.24945,9.17197-3.24945,9.17197s7.83135-2.47587,9.7272-.25611-1.77463,9.56737-1.77463,9.56737s7.34762-3.67048,9.56737-1.77463-.25611,9.7272-.25611,9.7272s6.68297-4.77471,9.17197-3.24945s1.26871,9.6475,1.26871,9.6475s5.85376-5.76137,8.55072-4.64425s2.76229,9.33026,2.76229,9.33026s4.88041-6.60617,7.71893-5.9247s4.18786,8.78327,4.18786,8.78327s3.7869-7.2883,6.69707-7.05926s5.5103,8.02,5.5103,8.02s2.60013-7.79097,5.5103-8.02s6.69707,7.05926,6.69707,7.05926s1.34934-8.1018,4.18786-8.78327s7.71893,5.9247,7.71893,5.9247.06533-8.21314,2.76229-9.33026s8.55072,4.64425,8.55072,4.64425-1.22029-8.12224,1.26871-9.6475s9.17197,3.24945,9.17197,3.24945-2.47587-7.83135-.25611-9.7272s9.56737,1.77463,9.56737,1.77463-3.67048-7.34762-1.77463-9.56737s9.7272.25611,9.7272.25611-4.77471-6.68297-3.24945-9.17197s9.6475-1.26871,9.6475-1.26871-5.76137-5.85376-4.64425-8.55072s9.33026-2.76229,9.33026-2.76229-6.60617-4.88041-5.9247-7.71893s8.78327-4.18786,8.78327-4.18786-7.2883-3.7869-7.05926-6.69707s8.02-5.5103,8.02-5.5103-7.79097-2.60013-8.02-5.5103s7.05926-6.69707,7.05926-6.69707-8.1018-1.34934-8.78327-4.18786s5.9247-7.71893,5.9247-7.71893-8.21314-.06533-9.33026-2.76229s4.64425-8.55072,4.64425-8.55072-8.12224,1.22029-9.6475-1.26871s3.24945-9.17197,3.24945-9.17197-7.83135,2.47587-9.7272.25611s1.77463-9.56737,1.77463-9.56737-7.34762,3.67048-9.56737,1.77463.25611-9.7272.25611-9.7272-6.68297,4.77471-9.17197,3.24945-1.26871-9.6475-1.26871-9.6475-5.85376,5.76137-8.55072,4.64425-2.76229-9.33026-2.76229-9.33026-4.88041,6.60617-7.71893,5.9247-4.18786-8.78327-4.18786-8.78327-3.7869,7.2883-6.69707,7.05926-5.5103-8.02-5.5103-8.02-2.60013,7.79097-5.5103,8.02Z" transform="matrix(1.03707 0 0 1.03707-5.5605-36.995378)" fill="#222" stroke-width="0"/></svg>
