<svg id="eSRo02HOqjg1" xmlns="http://www.w3.org/2000/svg" xmlns:xlink="http://www.w3.org/1999/xlink" viewBox="0 0 50 100" shape-rendering="geometricPrecision" text-rendering="geometricPrecision"><path d="M42.2217,36.54851h-34.4434L25,6.71965L42.2217,36.54851ZM24.47307,18.58931c-.33319.02622-.76677-.80824-.76677-.80824s-.15449.9276-.47948,1.00562-.88376-.67834-.88376-.67834-.00748.94035-.31626,1.06825-.979-.53174-.979-.53174.13972.92994-.14526,1.10457-1.05013-.37204-1.05013-.37204.28347.89664.02932,1.1137-1.0954-.20318-1.0954-.20318.42024.84125.20318,1.0954-1.1137-.02932-1.1137-.02932.54667.76515.37204,1.05013-1.10457.14526-1.10457.14526.65964.67022.53174.979-1.06825.31626-1.06825.31626.75636.55877.67834.88376-1.00562.47948-1.00562.47948.83446.43357.80824.76677-.91824.63089-.91824.63089.89201.2977.91824.63089-.80824.76677-.80824.76677.9276.15449,1.00562.47948-.67834.88376-.67834.88376.94035.00748,1.06825.31626-.53174.979-.53174.979.92994-.13972,1.10457.14526-.37204,1.05013-.37204,1.05013.89664-.28347,1.1137-.02932-.20318,1.0954-.20318,1.0954.84125-.42024,1.0954-.20318-.02932,1.1137-.02932,1.1137.76515-.54667,1.05013-.37204.14526,1.10457.14526,1.10457.67022-.65964.979-.53174.31626,1.06825.31626,1.06825.55877-.75636.88376-.67834.47948,1.00562.47948,1.00562.43357-.83446.76677-.80824.63089.91824.63089.91824.2977-.89201.63089-.91824.76677.80824.76677.80824.15449-.9276.47948-1.00562.88376.67834.88376.67834.00748-.94035.31626-1.06825.979.53174.979.53174-.13972-.92994.14526-1.10457s1.05013.37204,1.05013.37204-.28347-.89664-.02932-1.1137s1.0954.20318,1.0954.20318-.42024-.84125-.20318-1.0954s1.1137.02932,1.1137.02932-.54667-.76515-.37204-1.05013s1.10457-.14526,1.10457-.14526-.65964-.67022-.53174-.979s1.06825-.31626,1.06825-.31626-.75636-.55877-.67834-.88376s1.00562-.47948,1.00562-.47948-.83446-.43357-.80824-.76677.91824-.63089.91824-.63089-.89201-.2977-.91824-.63089.80824-.76677.80824-.76677-.9276-.15449-1.00562-.47948.67834-.88376.67834-.88376-.94035-.00748-1.06825-.31626.53174-.979.53174-.979-.92994.13972-1.10457-.14526.37204-1.05013.37204-1.05013-.89664.28347-1.1137.02932.20318-1.0954.20318-1.0954-.84125.42025-1.0954.20318.02932-1.1137.02932-1.1137-.76516.54667-1.05013.37204-.14526-1.10457-.14526-1.10457-.67021.65964-.979.53174-.31626-1.06825-.31626-1.06825-.55877.75636-.88376.67834-.47948-1.00562-.47948-1.00562-.43357.83446-.76677.80824-.63089-.91824-.63089-.91824-.2977.89201-.63089.91824Zm1.10733,6.61505l5.37757-4.55676-4.55676,5.37757l7.02464.5804-7.02464.5804l4.55676,5.37757-5.37757-4.55676L25,35.03142l-.5804-7.02464-5.37757,4.55676l4.55676-5.37757-7.02464-.5804l7.02464-.5804-4.55676-5.37757l5.37757,4.55676L25,18.17972l.5804,7.02464Zm-26.04182.25707C-0.46142,11.39947,10.93805,0.00001,25,0.00001s25.46142,11.39947,25.46142,25.46142s0,1.14411-25.46142,74.53857C-0.46142,26.60557,-0.46142,39.52339,-0.46142,25.46143ZM25,47.56328c11.98936,0,21.70865-9.71929,21.70865-21.70865s-9.71929-21.70865-21.70865-21.70865-21.70865,9.71929-21.70865,21.70865s9.71929,21.70865,21.70865,21.70865Z" transform="matrix(.981878 0 0 1 0.453043-.000005)" fill="#222" stroke-width="0"/></svg>
